<svg width="202" height="202" viewBox="0 0 202 202" fill="none" xmlns="http://www.w3.org/2000/svg">
<path d="M145.333 107.9C145.124 87.3271 162.105 77.4607 162.863 76.962C153.318 63.0051 138.452 61.0924 133.162 60.8777C120.525 59.59 108.48 68.3265 102.067 68.3265C95.6659 68.3265 85.7616 61.0671 75.2766 61.2502C61.4838 61.4585 48.7704 69.2734 41.6751 81.6206C27.3521 106.467 38.0139 143.287 51.9708 163.45C58.7946 173.303 66.9314 184.394 77.6059 183.99C87.8953 183.586 91.7774 177.331 104.213 177.331C116.649 177.331 120.146 183.99 131.029 183.776C142.094 183.574 149.108 173.733 155.875 163.835C163.702 152.384 166.928 141.299 167.123 140.737C166.884 140.63 145.554 132.455 145.333 107.9ZM124.88 47.5331C130.543 40.6588 134.374 31.108 133.339 21.6014C125.171 21.9359 115.279 27.0301 109.415 33.8981C104.163 39.9897 99.5608 49.692 100.798 59.0282C109.913 59.7352 119.199 54.3948 124.88 47.5331Z" fill="#DADADA"/>
</svg>
