<svg width="265" height="265" viewBox="0 0 265 265" fill="none" xmlns="http://www.w3.org/2000/svg">
<circle cx="132.5" cy="132.5" r="132.5" fill="white"/>
<path d="M176.038 137.452C176.266 162.078 197.52 170.274 197.756 170.379C197.575 170.956 194.359 182.056 186.558 193.522C179.814 203.436 172.814 213.312 161.789 213.516C150.952 213.72 147.468 207.056 135.082 207.056C122.698 207.056 118.828 213.315 108.573 213.722C97.9287 214.127 89.8255 203.003 83.0243 193.127C69.1262 172.917 58.5074 136.031 72.767 111.133C79.8513 98.7672 92.508 90.9384 106.247 90.7376C116.699 90.5367 126.562 97.8086 132.954 97.8086C139.338 97.8086 151.326 89.062 163.93 90.346C169.207 90.5659 184.017 92.4882 193.524 106.487C192.759 106.963 175.855 116.861 176.038 137.448M155.675 76.9832C161.326 70.1054 165.131 60.5273 164.094 51C155.948 51.3305 146.098 56.459 140.256 63.3318C135.02 69.4214 130.434 79.1648 131.673 88.5039C140.749 89.2107 150.026 83.8648 155.675 76.9832Z" fill="black"/>
</svg>
