<svg width="125" height="125" viewBox="0 0 125 125" fill="none" xmlns="http://www.w3.org/2000/svg">
<mask id="mask0_2_17" style="mask-type:alpha" maskUnits="userSpaceOnUse" x="0" y="0" width="125" height="125">
<rect width="125" height="125" fill="#D9D9D9"/>
</mask>
<g mask="url(#mask0_2_17)">
<path d="M49.4792 83.3333C40.0174 83.3333 32.0095 80.0564 25.4557 73.5026C18.9019 66.9488 15.625 58.941 15.625 49.4792C15.625 40.0174 18.9019 32.0095 25.4557 25.4557C32.0095 18.9019 40.0174 15.625 49.4792 15.625C58.941 15.625 66.9488 18.9019 73.5026 25.4557C80.0564 32.0095 83.3333 40.0174 83.3333 49.4792C83.3333 53.2986 82.7257 56.901 81.5104 60.2865C80.2951 63.6719 78.6458 66.6667 76.5625 69.2708L105.729 98.4375C106.684 99.3924 107.161 100.608 107.161 102.083C107.161 103.559 106.684 104.774 105.729 105.729C104.774 106.684 103.559 107.161 102.083 107.161C100.608 107.161 99.3924 106.684 98.4375 105.729L69.2708 76.5625C66.6667 78.6458 63.6719 80.2951 60.2865 81.5104C56.901 82.7257 53.2986 83.3333 49.4792 83.3333ZM49.4792 72.9167C55.9896 72.9167 61.5234 70.638 66.0807 66.0807C70.638 61.5234 72.9167 55.9896 72.9167 49.4792C72.9167 42.9687 70.638 37.4349 66.0807 32.8776C61.5234 28.3203 55.9896 26.0417 49.4792 26.0417C42.9687 26.0417 37.4349 28.3203 32.8776 32.8776C28.3203 37.4349 26.0417 42.9687 26.0417 49.4792C26.0417 55.9896 28.3203 61.5234 32.8776 66.0807C37.4349 70.638 42.9687 72.9167 49.4792 72.9167Z" fill="#DADADA"/>
</g>
</svg>
