<svg width="140" height="140" viewBox="0 0 140 140" fill="none" xmlns="http://www.w3.org/2000/svg">
<mask id="mask0_2_23" style="mask-type:alpha" maskUnits="userSpaceOnUse" x="0" y="0" width="140" height="140">
<rect width="140" height="140" fill="#D9D9D9"/>
</mask>
<g mask="url(#mask0_2_23)">
<path d="M35 128.333C31.7917 128.333 29.0451 127.191 26.7604 124.906C24.4757 122.622 23.3333 119.875 23.3333 116.667V46.6667C23.3333 43.4583 24.4757 40.7118 26.7604 38.4271C29.0451 36.1424 31.7917 35 35 35H46.6667C46.6667 28.5833 48.9514 23.0903 53.5208 18.5208C58.0903 13.9514 63.5833 11.6667 70 11.6667C76.4167 11.6667 81.9097 13.9514 86.4792 18.5208C91.0486 23.0903 93.3333 28.5833 93.3333 35H105C108.208 35 110.955 36.1424 113.24 38.4271C115.524 40.7118 116.667 43.4583 116.667 46.6667V116.667C116.667 119.875 115.524 122.622 113.24 124.906C110.955 127.191 108.208 128.333 105 128.333H35ZM35 116.667H105V46.6667H93.3333V58.3333C93.3333 59.9861 92.7743 61.3715 91.6563 62.4896C90.5382 63.6076 89.1528 64.1667 87.5 64.1667C85.8472 64.1667 84.4618 63.6076 83.3437 62.4896C82.2257 61.3715 81.6667 59.9861 81.6667 58.3333V46.6667H58.3333V58.3333C58.3333 59.9861 57.7743 61.3715 56.6562 62.4896C55.5382 63.6076 54.1528 64.1667 52.5 64.1667C50.8472 64.1667 49.4618 63.6076 48.3437 62.4896C47.2257 61.3715 46.6667 59.9861 46.6667 58.3333V46.6667H35V116.667ZM58.3333 35H81.6667C81.6667 31.7917 80.5243 29.0451 78.2396 26.7604C75.9549 24.4757 73.2083 23.3333 70 23.3333C66.7917 23.3333 64.0451 24.4757 61.7604 26.7604C59.4757 29.0451 58.3333 31.7917 58.3333 35Z" fill="#DADADA"/>
</g>
</svg>
