<svg width="288" height="75" viewBox="0 0 288 75" fill="none" xmlns="http://www.w3.org/2000/svg">
<g clip-path="url(#clip0_9_11)">
<path d="M34.0331 36.7449C34.1027 44.2527 40.6059 46.7515 40.6782 46.7837C40.6229 46.9597 39.6389 50.3438 37.252 53.8395C35.1884 56.862 33.0468 59.8728 29.6732 59.9352C26.3576 59.9973 25.2916 57.9655 21.5018 57.9655C17.7128 57.9655 16.5284 59.874 13.3908 59.998C10.134 60.1213 7.65462 56.7298 5.57368 53.719C1.32128 47.5573 -1.92777 36.3116 2.43525 28.7209C4.60283 24.9508 8.4754 22.5639 12.6791 22.5027C15.8771 22.4414 18.8948 24.6585 20.8508 24.6585C22.8041 24.6585 26.4721 21.9918 30.3284 22.3833C31.9429 22.4504 36.4745 23.0364 39.3832 27.3042C39.1492 27.4496 33.977 30.467 34.0331 36.7438M27.8026 18.3093C29.5316 16.2124 30.6958 13.2922 30.3787 10.3876C27.8862 10.4883 24.8723 12.0519 23.0849 14.1473C21.4828 16.0039 20.0796 18.9744 20.4586 21.8217C23.2358 22.0372 26.0741 20.4073 27.8026 18.3093Z" fill="black"/>
</g>
<path d="M47.4659 21.7564V14.9091H83.4418V21.7564H69.505V60H61.4027V21.7564H47.4659ZM86.5131 60V26.1818H94.2411V31.8182H94.5934C95.2099 29.866 96.2667 28.3615 97.7639 27.3047C99.2757 26.2332 101 25.6974 102.938 25.6974C103.378 25.6974 103.87 25.7195 104.413 25.7635C104.971 25.7928 105.433 25.8442 105.8 25.9176V33.2493C105.462 33.1319 104.927 33.0291 104.193 32.941C103.474 32.8383 102.776 32.7869 102.101 32.7869C100.648 32.7869 99.3417 33.1025 98.1822 33.7337C97.0373 34.3501 96.1346 35.2088 95.4741 36.3097C94.8136 37.4105 94.4833 38.6802 94.4833 40.1186V60H86.5131ZM120.221 60.6825C118.078 60.6825 116.148 60.3009 114.431 59.5376C112.728 58.7597 111.378 57.6148 110.38 56.103C109.396 54.5911 108.904 52.727 108.904 50.5107C108.904 48.6025 109.257 47.0246 109.961 45.777C110.666 44.5294 111.627 43.5312 112.846 42.7827C114.064 42.0341 115.436 41.469 116.963 41.0874C118.504 40.6911 120.096 40.4048 121.74 40.2287C123.722 40.0232 125.329 39.8397 126.562 39.6783C127.795 39.5021 128.69 39.2379 129.248 38.8857C129.821 38.5187 130.107 37.9536 130.107 37.1903V37.0582C130.107 35.3996 129.615 34.1153 128.632 33.2053C127.648 32.2952 126.232 31.8402 124.382 31.8402C122.43 31.8402 120.882 32.2659 119.737 33.1172C118.607 33.9685 117.843 34.974 117.447 36.1335L110.005 35.0767C110.592 33.0218 111.561 31.3044 112.912 29.9247C114.262 28.5303 115.913 27.4882 117.865 26.7983C119.818 26.0938 121.975 25.7415 124.338 25.7415C125.968 25.7415 127.59 25.9323 129.204 26.3139C130.819 26.6955 132.294 27.3267 133.63 28.2074C134.965 29.0734 136.037 30.255 136.844 31.7521C137.666 33.2493 138.077 35.1207 138.077 37.3665V60H130.415V55.3544H130.151C129.667 56.2938 128.984 57.1745 128.103 57.9964C127.237 58.8037 126.144 59.4569 124.823 59.956C123.516 60.4403 121.983 60.6825 120.221 60.6825ZM122.291 54.826C123.891 54.826 125.278 54.5104 126.452 53.8793C127.626 53.2334 128.529 52.3821 129.16 51.3253C129.806 50.2685 130.129 49.1162 130.129 47.8686V43.8835C129.879 44.089 129.454 44.2798 128.852 44.456C128.265 44.6321 127.604 44.7862 126.87 44.9183C126.136 45.0504 125.41 45.1678 124.691 45.2706C123.971 45.3733 123.348 45.4614 122.819 45.5348C121.63 45.6963 120.566 45.9605 119.627 46.3274C118.687 46.6944 117.946 47.2081 117.403 47.8686C116.86 48.5144 116.588 49.3511 116.588 50.3786C116.588 51.8464 117.124 52.9545 118.196 53.7031C119.267 54.4517 120.632 54.826 122.291 54.826ZM158.641 60.5945C155.984 60.5945 153.606 59.9119 151.507 58.5469C149.408 57.1818 147.75 55.2003 146.532 52.6023C145.313 50.0043 144.704 46.8485 144.704 43.1349C144.704 39.3774 145.321 36.2069 146.554 33.6236C147.801 31.0256 149.482 29.0661 151.596 27.745C153.709 26.4093 156.065 25.7415 158.663 25.7415C160.645 25.7415 162.274 26.0791 163.551 26.7543C164.828 27.4148 165.841 28.2147 166.589 29.1541C167.338 30.0788 167.917 30.9522 168.328 31.7741H168.659V14.9091H176.651V60H168.813V54.6719H168.328C167.917 55.4938 167.323 56.3672 166.545 57.2919C165.767 58.2019 164.74 58.9799 163.463 59.6257C162.186 60.2715 160.578 60.5945 158.641 60.5945ZM160.865 54.0554C162.553 54.0554 163.991 53.6004 165.18 52.6903C166.369 51.7656 167.272 50.4813 167.888 48.8374C168.505 47.1934 168.813 45.2779 168.813 43.0909C168.813 40.9039 168.505 39.0031 167.888 37.3885C167.286 35.7739 166.391 34.5189 165.202 33.6236C164.028 32.7282 162.582 32.2805 160.865 32.2805C159.089 32.2805 157.606 32.7429 156.417 33.6676C155.228 34.5923 154.333 35.8693 153.731 37.4986C153.129 39.1278 152.828 40.992 152.828 43.0909C152.828 45.2045 153.129 47.0907 153.731 48.7493C154.348 50.3932 155.25 51.6922 156.439 52.6463C157.643 53.5857 159.118 54.0554 160.865 54.0554ZM200.116 60.6605C196.725 60.6605 193.797 59.956 191.331 58.5469C188.88 57.1231 186.993 55.1122 185.672 52.5142C184.351 49.9015 183.691 46.8265 183.691 43.2891C183.691 39.8104 184.351 36.7573 185.672 34.13C187.008 31.4879 188.872 29.433 191.265 27.9652C193.657 26.4827 196.468 25.7415 199.697 25.7415C201.782 25.7415 203.748 26.0791 205.598 26.7543C207.462 27.4148 209.106 28.4422 210.53 29.8366C211.968 31.2311 213.098 33.0071 213.92 35.1648C214.742 37.3078 215.153 39.8617 215.153 42.8267V45.2706H187.434V39.8984H207.513C207.499 38.3719 207.168 37.0142 206.523 35.8253C205.877 34.6217 204.974 33.675 203.814 32.9851C202.67 32.2952 201.334 31.9503 199.807 31.9503C198.178 31.9503 196.747 32.3466 195.514 33.1392C194.281 33.9171 193.32 34.9446 192.63 36.2216C191.955 37.4839 191.61 38.871 191.595 40.3828V45.0724C191.595 47.0393 191.955 48.7273 192.674 50.1364C193.393 51.5308 194.398 52.6023 195.69 53.3509C196.982 54.0848 198.494 54.4517 200.226 54.4517C201.385 54.4517 202.435 54.2902 203.374 53.9673C204.314 53.6297 205.128 53.138 205.818 52.4922C206.508 51.8464 207.029 51.0464 207.381 50.0923L214.823 50.929C214.353 52.8958 213.458 54.6132 212.137 56.081C210.831 57.5341 209.157 58.6643 207.117 59.4716C205.077 60.2642 202.743 60.6605 200.116 60.6605ZM245.795 14.9091V60H237.627V14.9091H245.795ZM262.259 40.1847V60H254.289V26.1818H261.906V31.9283H262.303C263.081 30.0348 264.321 28.5303 266.024 27.4148C267.741 26.2992 269.862 25.7415 272.387 25.7415C274.72 25.7415 276.753 26.2405 278.485 27.2386C280.232 28.2367 281.582 29.6825 282.536 31.576C283.505 33.4695 283.982 35.7666 283.968 38.4673V60H275.997V39.7003C275.997 37.4399 275.41 35.6712 274.236 34.3942C273.076 33.1172 271.469 32.4787 269.414 32.4787C268.02 32.4787 266.78 32.7869 265.693 33.4034C264.622 34.0052 263.778 34.8786 263.161 36.0234C262.56 37.1683 262.259 38.5554 262.259 40.1847Z" fill="black"/>
<defs>
<clipPath id="clip0_9_11">
<rect width="41" height="50" fill="white" transform="translate(0 10)"/>
</clipPath>
</defs>
</svg>
