<svg width="482" height="123" viewBox="0 0 482 123" fill="none" xmlns="http://www.w3.org/2000/svg">
<path d="M88.4947 65.7012C88.3678 53.1744 98.7075 47.1667 99.1688 46.863C93.357 38.3645 84.305 37.1998 81.0839 37.0691C73.3887 36.285 66.0549 41.6048 62.1496 41.6048C58.2521 41.6048 52.2212 37.1844 45.8367 37.2959C37.4382 37.4228 29.6968 42.1813 25.3765 49.6997C16.655 64.8287 23.1471 87.2493 31.6456 99.5262C35.8007 105.526 40.7553 112.28 47.2551 112.034C53.5204 111.788 55.8843 107.979 63.4565 107.979C71.0287 107.979 73.1581 112.034 79.7847 111.903C86.5228 111.78 90.7932 105.788 94.9137 99.7607C99.68 92.7881 101.644 86.0385 101.763 85.6964C101.617 85.6311 88.6292 80.6534 88.4947 65.7012ZM76.0409 28.9434C79.4888 24.7576 81.8219 18.942 81.1916 13.1533C76.2177 13.357 70.1946 16.4589 66.6237 20.6409C63.4257 24.3502 60.6237 30.258 61.377 35.9429C66.9274 36.3734 72.5816 33.1216 76.0409 28.9434Z" fill="white"/>
<path d="M481.829 79.5518V87.3447H427.894V81.7563L461.321 30.0254H469.063L460.757 44.9961L438.66 79.5518H481.829ZM471.421 30.0254V104.674H461.937V30.0254H471.421Z" fill="white"/>
<path d="M421.229 96.8809V104.674H372.369V97.855L396.824 70.6309C399.832 67.2812 402.156 64.4443 403.797 62.1201C405.472 59.7617 406.634 57.6597 407.283 55.814C407.967 53.9341 408.309 52.02 408.309 50.0718C408.309 47.6108 407.796 45.3892 406.771 43.4067C405.779 41.3901 404.31 39.7837 402.361 38.5874C400.413 37.3911 398.055 36.793 395.286 36.793C391.971 36.793 389.202 37.4424 386.98 38.7412C384.793 40.0059 383.152 41.7832 382.059 44.0732C380.965 46.3633 380.418 48.9951 380.418 51.9688H370.933C370.933 47.7646 371.856 43.9194 373.702 40.4331C375.547 36.9468 378.282 34.1782 381.905 32.1274C385.528 30.0425 389.988 29 395.286 29C400.003 29 404.036 29.8374 407.386 31.5122C410.735 33.1528 413.299 35.4771 415.076 38.4849C416.888 41.4585 417.793 44.9448 417.793 48.9438C417.793 51.1313 417.417 53.353 416.666 55.6089C415.948 57.8306 414.939 60.0522 413.641 62.2739C412.376 64.4956 410.889 66.6831 409.18 68.8364C407.505 70.9897 405.711 73.1089 403.797 75.1938L383.802 96.8809H421.229Z" fill="white"/>
<path d="M351.451 80.936H361.294C360.782 85.6528 359.432 89.874 357.244 93.5996C355.057 97.3252 351.963 100.282 347.964 102.469C343.965 104.623 338.975 105.699 332.994 105.699C328.619 105.699 324.637 104.879 321.048 103.238C317.493 101.598 314.434 99.2734 311.871 96.2656C309.307 93.2236 307.325 89.5835 305.923 85.3452C304.556 81.0728 303.873 76.3218 303.873 71.0923V63.6582C303.873 58.4287 304.556 53.6948 305.923 49.4565C307.325 45.1841 309.324 41.5269 311.922 38.4849C314.554 35.4429 317.715 33.1016 321.407 31.4609C325.098 29.8203 329.251 29 333.865 29C339.505 29 344.273 30.0596 348.169 32.1787C352.066 34.2979 355.091 37.2373 357.244 40.9971C359.432 44.7227 360.782 49.0464 361.294 53.9683H351.451C350.972 50.4819 350.083 47.4912 348.785 44.9961C347.486 42.4668 345.64 40.5186 343.248 39.1514C340.855 37.7842 337.728 37.1006 333.865 37.1006C330.55 37.1006 327.627 37.7329 325.098 38.9976C322.603 40.2622 320.501 42.0566 318.792 44.3809C317.117 46.7051 315.853 49.4907 314.998 52.7378C314.144 55.9849 313.716 59.5908 313.716 63.5557V71.0923C313.716 74.7495 314.092 78.1846 314.844 81.3975C315.63 84.6104 316.81 87.4302 318.382 89.8569C319.954 92.2837 321.954 94.1978 324.38 95.5991C326.807 96.9663 329.678 97.6499 332.994 97.6499C337.198 97.6499 340.547 96.9834 343.042 95.6504C345.538 94.3174 347.417 92.4033 348.682 89.9082C349.981 87.4131 350.904 84.4224 351.451 80.936Z" fill="white"/>
<path d="M266.073 104.674H250.487L250.589 96.6245H266.073C271.405 96.6245 275.848 95.5137 279.403 93.292C282.958 91.0361 285.624 87.8916 287.401 83.8584C289.212 79.791 290.118 75.04 290.118 69.6055V65.0425C290.118 60.77 289.605 56.9761 288.58 53.6606C287.555 50.311 286.051 47.4912 284.068 45.2012C282.086 42.877 279.659 41.1167 276.788 39.9204C273.951 38.7241 270.687 38.126 266.996 38.126H250.179V30.0254H266.996C271.883 30.0254 276.344 30.8457 280.377 32.4863C284.41 34.0928 287.879 36.4341 290.785 39.5103C293.724 42.5522 295.98 46.2437 297.552 50.5845C299.125 54.8911 299.911 59.7446 299.911 65.145V69.6055C299.911 75.0059 299.125 79.8765 297.552 84.2173C295.98 88.5239 293.707 92.1982 290.733 95.2402C287.794 98.2822 284.239 100.624 280.069 102.264C275.934 103.871 271.268 104.674 266.073 104.674ZM255.768 30.0254V104.674H245.873V30.0254H255.768Z" fill="white"/>
<path d="M179.046 81.7637L193.863 29.6738H201.041L196.888 49.9253L180.943 104.322H173.816L179.046 81.7637ZM163.716 29.6738L175.508 80.7383L179.046 104.322H171.971L153.873 29.6738H163.716ZM220.215 80.687L231.751 29.6738H241.646L223.599 104.322H216.524L220.215 80.687ZM202.117 29.6738L216.524 81.7637L221.753 104.322H214.627L199.246 49.9253L195.042 29.6738H202.117Z" fill="white"/>
<path d="M139.173 82.1152L153.99 30.0254H161.168L157.015 50.2769L141.07 104.674H133.944L139.173 82.1152ZM123.844 30.0254L135.636 81.0898L139.173 104.674H132.098L114 30.0254H123.844ZM180.343 81.0386L191.878 30.0254H201.773L183.727 104.674H176.651L180.343 81.0386ZM162.245 30.0254L176.651 82.1152L181.881 104.674H174.754L159.374 50.2769L155.169 30.0254H162.245Z" fill="white"/>
</svg>
